<svg xmlns="http://www.w3.org/2000/svg" viewBox="0 0 22 22">
  <defs>
    <clipPath id="r">
      <rect x="0" y="0" width="22" height="22" rx="6" ry="6"/>
    </clipPath>
  </defs>
  <g clip-path="url(#r)">
    <path d="M11,11 L2.000,26.588 A18,18 0 0 1 -1.728,23.728 Z" fill="#fbfbfb"/>
    <path d="M11,11 L-1.728,23.728 A18,18 0 0 1 -4.588,20.000 Z" fill="#f2f3f4"/>
    <path d="M11,11 L-4.588,20.000 A18,18 0 0 1 -6.387,15.659 Z" fill="#eaebec"/>
    <path d="M11,11 L-6.387,15.659 A18,18 0 0 1 -7.000,11.000 Z" fill="#e2e3e5"/>
    <path d="M11,11 L-7.000,11.000 A18,18 0 0 1 -6.387,6.341 Z" fill="#d9dbde"/>
    <path d="M11,11 L-6.387,6.341 A18,18 0 0 1 -4.588,2.000 Z" fill="#d1d3d6"/>
    <path d="M11,11 L-4.588,2.000 A18,18 0 0 1 -1.728,-1.728 Z" fill="#c8cccf"/>
    <path d="M11,11 L-1.728,-1.728 A18,18 0 0 1 2.000,-4.588 Z" fill="#c0c4c7"/>
    <path d="M11,11 L2.000,-4.588 A18,18 0 0 1 6.341,-6.387 Z" fill="#b7bcc0"/>
    <path d="M11,11 L6.341,-6.387 A18,18 0 0 1 11.000,-7.000 Z" fill="#afb4b9"/>
    <path d="M11,11 L11.000,-7.000 A18,18 0 0 1 15.659,-6.387 Z" fill="#a7acb1"/>
    <path d="M11,11 L15.659,-6.387 A18,18 0 0 1 20.000,-4.588 Z" fill="#9ea4aa"/>
    <path d="M11,11 L20.000,-4.588 A18,18 0 0 1 23.728,-1.728 Z" fill="#9ea4aa"/>
    <path d="M11,11 L23.728,-1.728 A18,18 0 0 1 26.588,2.000 Z" fill="#a7acb1"/>
    <path d="M11,11 L26.588,2.000 A18,18 0 0 1 28.387,6.341 Z" fill="#afb4b9"/>
    <path d="M11,11 L28.387,6.341 A18,18 0 0 1 29.000,11.000 Z" fill="#b7bcc0"/>
    <path d="M11,11 L29.000,11.000 A18,18 0 0 1 28.387,15.659 Z" fill="#c0c4c7"/>
    <path d="M11,11 L28.387,15.659 A18,18 0 0 1 26.588,20.000 Z" fill="#c8cccf"/>
    <path d="M11,11 L26.588,20.000 A18,18 0 0 1 23.728,23.728 Z" fill="#d1d3d6"/>
    <path d="M11,11 L23.728,23.728 A18,18 0 0 1 20.000,26.588 Z" fill="#d9dbde"/>
    <path d="M11,11 L20.000,26.588 A18,18 0 0 1 15.659,28.387 Z" fill="#e2e3e5"/>
    <path d="M11,11 L15.659,28.387 A18,18 0 0 1 11.000,29.000 Z" fill="#eaebec"/>
    <path d="M11,11 L11.000,29.000 A18,18 0 0 1 6.341,28.387 Z" fill="#f2f3f4"/>
    <path d="M11,11 L6.341,28.387 A18,18 0 0 1 2.000,26.588 Z" fill="#fbfbfb"/>
  </g>
  <rect x="0.5" y="0.5" width="21" height="21" rx="5.5" ry="5.5" fill="none" stroke="#000000" stroke-opacity="0.25" stroke-width="1"/>
</svg>
